<svg width="24" height="19" viewBox="0 0 24 19" fill="none" xmlns="http://www.w3.org/2000/svg">
<g id="Email">
<g id="Icon">
<path d="M6.28013 1.08233C10.1418 0.746645 14.0252 0.746645 17.8869 1.08233L19.7474 1.24406C20.9859 1.35172 22.0466 2.09047 22.5963 3.14718C22.6666 3.28237 22.6139 3.44604 22.4843 3.52625L14.7652 8.30478C13.1096 9.32964 11.0221 9.35114 9.34581 8.3606L1.57506 3.7688C1.44951 3.69461 1.39189 3.5419 1.44847 3.4075C1.95128 2.21307 3.08173 1.36036 4.41964 1.24406L6.28013 1.08233Z" fill="red"/>
<path d="M1.44214 5.83665C1.25001 5.72311 1.00485 5.84529 0.982454 6.06733C0.669872 9.1664 0.745526 12.2948 1.20941 15.3797C1.45397 17.0059 2.78125 18.2527 4.41964 18.3951L6.28013 18.5569C10.1418 18.8925 14.0252 18.8925 17.8869 18.5569L19.7474 18.3951C21.3857 18.2527 22.713 17.0059 22.9576 15.3797C23.435 12.2049 23.5012 8.98403 23.1562 5.79648C23.132 5.57286 22.8827 5.45294 22.6915 5.57133L15.7378 9.87597C13.498 11.2625 10.6737 11.2916 8.40574 9.9515L1.44214 5.83665Z" fill="red"/>
</g>
</g>
</svg>
