<svg width="23" height="19" viewBox="0 0 23 19" fill="none" xmlns="http://www.w3.org/2000/svg">
<g id="Email">
<path id="Icon" fill-rule="evenodd" clip-rule="evenodd" d="M0.578368 5.30955C0.241547 8.29851 0.256561 11.7457 0.725252 14.7226C0.984589 16.3697 2.39211 17.6324 4.12953 17.7767L5.94531 17.9274C9.73146 18.2418 13.539 18.2418 17.3252 17.9274L19.141 17.7767C20.8784 17.6324 22.2859 16.3697 22.5452 14.7226C23.0139 11.7457 23.029 8.2987 22.6921 5.30973C22.6486 4.96322 22.5996 4.61717 22.5452 4.27169C22.2859 2.62456 20.8784 1.36181 19.141 1.21756L17.3252 1.06681C13.539 0.752469 9.73146 0.752469 5.94531 1.06681L4.12953 1.21756C2.3921 1.36181 0.984589 2.62456 0.725252 4.27169C0.670868 4.61711 0.621907 4.9631 0.578368 5.30955ZM6.10149 2.78282C9.78372 2.47711 13.4868 2.4771 17.169 2.78282L18.9848 2.93357C19.8917 3.00887 20.6264 3.66802 20.7618 4.52783C20.7759 4.61712 20.7895 4.70646 20.8028 4.79583L14.1168 8.3435C12.5735 9.16237 10.6969 9.16237 9.15364 8.34349L2.46764 4.79587C2.48093 4.70648 2.49461 4.61714 2.50867 4.52783C2.64405 3.66802 3.37877 3.00887 4.28572 2.93357L6.10149 2.78282ZM21.0235 6.64917C21.2567 9.25328 21.1695 11.877 20.7618 14.4664C20.6264 15.3262 19.8917 15.9854 18.9848 16.0607L17.169 16.2114C13.4868 16.5172 9.78372 16.5172 6.10149 16.2114L4.28572 16.0607C3.37878 15.9854 2.64405 15.3262 2.50867 14.4664C2.10098 11.877 2.01374 9.2533 2.24695 6.64922L8.2778 9.84921C10.3658 10.9571 12.9046 10.9571 14.9926 9.84921L21.0235 6.64917Z" fill="#C2C3CB"/>
</g>
</svg>
