<svg width="23" height="21" viewBox="0 0 23 21" fill="none" xmlns="http://www.w3.org/2000/svg">
<g id="Icon">
<path fill-rule="evenodd" clip-rule="evenodd" d="M21.2945 2.08747C21.6202 1.76184 21.6202 1.2339 21.2945 0.90828C20.9689 0.582657 20.441 0.582657 20.1154 0.90828L2.3274 18.6962C2.00178 19.0219 2.00178 19.5498 2.3274 19.8754C2.65302 20.201 3.18096 20.201 3.50659 19.8754L6.67162 16.7104C8.19061 17.4254 9.94011 17.8961 11.811 17.8961C14.7949 17.8961 17.4702 16.6987 19.3938 15.2224C20.3574 14.4828 21.1532 13.6577 21.7154 12.8475C22.2621 12.0598 22.6505 11.1953 22.6505 10.3919C22.6505 9.58839 22.2621 8.72391 21.7154 7.93617C21.1532 7.12603 20.3574 6.30094 19.3938 5.56135C19.1023 5.33768 18.7937 5.12042 18.4693 4.91275L21.2945 2.08747ZM17.258 6.124L15.2893 8.09271C15.7258 8.75178 15.98 9.54213 15.98 10.3919C15.98 12.6944 14.1135 14.5609 11.811 14.5609C10.9613 14.5609 10.1709 14.3067 9.51183 13.8702L7.9368 15.4452C9.1214 15.9278 10.4348 16.2285 11.811 16.2285C14.353 16.2285 16.6807 15.2025 18.3784 13.8995C19.2255 13.2494 19.895 12.5458 20.3454 11.8968C20.8113 11.2253 20.9829 10.7001 20.9829 10.3919C20.9829 10.0836 20.8113 9.55836 20.3454 8.88694C19.895 8.2379 19.2255 7.53435 18.3784 6.88425C18.0303 6.61703 17.6556 6.36146 17.258 6.124ZM10.7325 12.6495C11.0591 12.8058 11.4248 12.8933 11.811 12.8933C13.1925 12.8933 14.3124 11.7734 14.3124 10.3919C14.3124 10.0057 14.2249 9.63994 14.0686 9.31339L10.7325 12.6495Z" fill="#6C5FBC"/>
<path d="M11.811 2.88756C12.9587 2.88756 14.0607 3.06471 15.0919 3.36674C15.2903 3.42484 15.3494 3.67314 15.2032 3.81931L14.2865 4.73601C14.2177 4.80477 14.1181 4.83232 14.0233 4.81052C13.3125 4.64697 12.5713 4.55518 11.811 4.55518C9.26891 4.55518 6.94128 5.58123 5.24352 6.88425C4.39648 7.53435 3.72698 8.2379 3.27656 8.88694C2.81061 9.55836 2.63906 10.0836 2.63906 10.3919C2.63906 10.7001 2.81061 11.2253 3.27656 11.8968C3.66993 12.4636 4.23039 13.072 4.93027 13.6501C5.05907 13.7564 5.07135 13.9512 4.95322 14.0693L4.16509 14.8574C4.06469 14.9578 3.90449 14.9666 3.79569 14.8754C3.02527 14.2293 2.38227 13.5331 1.90653 12.8475C1.35985 12.0598 0.971436 11.1953 0.971436 10.3919C0.971436 9.58839 1.35985 8.72391 1.90653 7.93617C2.46875 7.12603 3.26455 6.30094 4.2282 5.56135C6.15179 4.085 8.82703 2.88756 11.811 2.88756Z" fill="#6C5FBC"/>
<path d="M11.811 6.2228C11.9427 6.2228 12.073 6.22891 12.2016 6.24086C12.4204 6.26119 12.4996 6.52287 12.3442 6.67829L10.9965 8.02602C10.2702 8.27601 9.69513 8.85106 9.44514 9.57737L8.09741 10.9251C7.94199 11.0805 7.68031 11.0013 7.65998 10.7824C7.64803 10.6538 7.64192 10.5236 7.64192 10.3919C7.64192 8.08935 9.50847 6.2228 11.811 6.2228Z" fill="#6C5FBC"/>
</g>
</svg>
