<svg width="21" height="24" viewBox="0 0 21 24" fill="none" xmlns="http://www.w3.org/2000/svg">
<path d="M10.5008 0.651367C7.81712 0.651367 5.6416 2.94731 5.6416 5.7795C5.6416 8.61168 7.81712 10.9076 10.5008 10.9076C13.1844 10.9076 15.3599 8.61168 15.3599 5.7795C15.3599 2.94731 13.1844 0.651367 10.5008 0.651367Z" fill="red"/>
<path d="M5.31765 13.6426C2.63402 13.6426 0.458496 15.9386 0.458496 18.7708V20.3957C0.458496 21.4258 1.16584 22.304 2.1291 22.47C7.6735 23.4253 13.328 23.4253 18.8724 22.47C19.8357 22.304 20.543 21.4258 20.543 20.3957V18.7708C20.543 15.9386 18.3675 13.6426 15.6839 13.6426H15.2422C15.0031 13.6426 14.7656 13.6825 14.5383 13.7608L13.4168 14.1473C11.522 14.8003 9.47952 14.8003 7.58473 14.1473L6.46321 13.7608C6.23596 13.6825 5.9984 13.6426 5.75934 13.6426H5.31765Z" fill="red"/>
</svg>
