<svg width="20" height="25" viewBox="0 0 20 25" fill="none" xmlns="http://www.w3.org/2000/svg">
<g id="Icon - Text">
<g id="Lock">
<path id="Icon" fill-rule="evenodd" clip-rule="evenodd" d="M4.12631 7.39649L4.56168 11.3148L3.68067 11.3851C2.45211 11.4832 1.44893 12.4067 1.24977 13.623C0.790767 16.4262 0.790767 19.2854 1.24977 22.0886C1.44893 23.3048 2.45211 24.2284 3.68067 24.3264L5.57933 24.478C8.577 24.7173 11.589 24.7173 14.5867 24.478L16.4853 24.3264C17.7139 24.2284 18.7171 23.3048 18.9162 22.0886C19.3752 19.2854 19.3752 16.4262 18.9162 13.623C18.7171 12.4067 17.7139 11.4832 16.4853 11.3851L15.6042 11.3147L16.0395 7.39649C16.0909 6.93458 16.0909 6.46841 16.0395 6.00651L16.0107 5.74648C15.7042 2.98835 13.5359 0.806017 10.7798 0.481769C10.3168 0.427301 9.84905 0.427301 9.38607 0.481769C6.62996 0.806016 4.46166 2.98835 4.1552 5.74648L4.12631 6.00651C4.07499 6.46841 4.07499 6.93458 4.12631 7.39649ZM10.5574 2.3723C10.2422 2.33522 9.92369 2.33522 9.60848 2.3723C7.73203 2.59306 6.25578 4.07887 6.04713 5.9567L6.01824 6.21672C5.98244 6.53891 5.98244 6.86408 6.01824 7.18628L6.46089 11.1701C8.8731 11.0154 11.2928 11.0154 13.705 11.1701L14.1476 7.18627C14.1834 6.86408 14.1834 6.53892 14.1476 6.21672L14.1187 5.9567C13.9101 4.07887 12.4338 2.59306 10.5574 2.3723ZM10.083 15.9522C9.03165 15.9522 8.17939 16.8045 8.17939 17.8558C8.17939 18.9071 9.03165 19.7593 10.083 19.7593C11.1343 19.7593 11.9865 18.9071 11.9865 17.8558C11.9865 16.8045 11.1343 15.9522 10.083 15.9522Z" fill="#6C5FBC"/>
</g>
</g>
</svg>
