<svg width="228" height="239" viewBox="0 0 228 239" fill="none" xmlns="http://www.w3.org/2000/svg">
<g filter="url(#filter0_d_1_13446)">
<g filter="url(#filter1_d_1_13446)">
<rect x="22" y="40" width="159.043" height="148.417" rx="15" fill="white"/>
<rect x="22.1243" y="40.1243" width="158.794" height="148.168" rx="14.8757" stroke="#EDF2F7" stroke-width="0.248673"/>
</g>
<path d="M89.3005 173.737V174.159H86.3805V173.856L88.1902 171.056H88.6093L88.1597 171.866L86.9634 173.737H89.3005ZM88.737 171.056V175.097H88.2235V171.056H88.737ZM90.9936 175.097H90.1498L90.1554 174.661H90.9936C91.2823 174.661 91.5228 174.601 91.7153 174.481C91.9077 174.359 92.0521 174.189 92.1483 173.97C92.2464 173.75 92.2954 173.493 92.2954 173.199V172.952C92.2954 172.72 92.2676 172.515 92.2121 172.335C92.1566 172.154 92.0752 172.001 91.9679 171.877C91.8605 171.752 91.7292 171.656 91.5737 171.592C91.4201 171.527 91.2434 171.494 91.0436 171.494H90.1332V171.056H91.0436C91.3082 171.056 91.5497 171.1 91.768 171.189C91.9864 171.276 92.1742 171.403 92.3315 171.569C92.4906 171.734 92.6127 171.934 92.6979 172.169C92.783 172.402 92.8255 172.665 92.8255 172.957V173.199C92.8255 173.491 92.783 173.755 92.6979 173.99C92.6127 174.223 92.4897 174.422 92.3287 174.586C92.1696 174.751 91.9771 174.878 91.7514 174.967C91.5275 175.054 91.2749 175.097 90.9936 175.097ZM90.4357 171.056V175.097H89.9V171.056H90.4357Z" fill="#828282"/>
<path d="M112.326 173.647L111.915 173.542L112.118 171.529H114.191V172.004H112.553L112.431 173.103C112.505 173.061 112.599 173.021 112.711 172.984C112.826 172.947 112.958 172.928 113.106 172.928C113.293 172.928 113.46 172.961 113.608 173.026C113.756 173.088 113.882 173.179 113.986 173.298C114.091 173.416 114.171 173.558 114.227 173.725C114.283 173.892 114.31 174.078 114.31 174.283C114.31 174.477 114.283 174.656 114.23 174.819C114.178 174.981 114.099 175.124 113.994 175.246C113.888 175.366 113.755 175.46 113.594 175.526C113.435 175.593 113.247 175.626 113.031 175.626C112.868 175.626 112.713 175.604 112.567 175.56C112.423 175.513 112.293 175.444 112.179 175.352C112.066 175.257 111.973 175.141 111.901 175.002C111.831 174.861 111.786 174.696 111.768 174.508H112.256C112.278 174.659 112.323 174.787 112.39 174.891C112.456 174.994 112.543 175.073 112.65 175.127C112.76 175.179 112.886 175.204 113.031 175.204C113.153 175.204 113.261 175.183 113.355 175.141C113.45 175.098 113.529 175.037 113.594 174.957C113.659 174.878 113.708 174.782 113.741 174.669C113.776 174.556 113.794 174.429 113.794 174.288C113.794 174.161 113.776 174.042 113.741 173.933C113.706 173.824 113.653 173.729 113.583 173.647C113.515 173.566 113.43 173.503 113.33 173.459C113.231 173.412 113.116 173.389 112.986 173.389C112.814 173.389 112.684 173.412 112.595 173.459C112.508 173.505 112.418 173.568 112.326 173.647ZM116.101 175.571H115.257L115.262 175.135H116.101C116.389 175.135 116.63 175.075 116.822 174.955C117.015 174.832 117.159 174.662 117.255 174.444C117.353 174.224 117.402 173.966 117.402 173.672V173.425C117.402 173.194 117.375 172.989 117.319 172.809C117.264 172.628 117.182 172.475 117.075 172.351C116.967 172.225 116.836 172.13 116.681 172.065C116.527 172 116.35 171.968 116.151 171.968H115.24V171.529H116.151C116.415 171.529 116.657 171.574 116.875 171.663C117.093 171.75 117.281 171.876 117.438 172.043C117.598 172.208 117.72 172.407 117.805 172.643C117.89 172.876 117.932 173.138 117.932 173.431V173.672C117.932 173.965 117.89 174.228 117.805 174.463C117.72 174.696 117.597 174.895 117.436 175.06C117.276 175.225 117.084 175.352 116.858 175.44C116.634 175.527 116.382 175.571 116.101 175.571ZM115.543 171.529V175.571H115.007V171.529H115.543Z" fill="#828282"/>
<path d="M138.753 171.524H138.798V171.96H138.753C138.481 171.96 138.254 172.004 138.071 172.093C137.887 172.18 137.742 172.297 137.635 172.445C137.527 172.592 137.45 172.756 137.402 172.939C137.355 173.123 137.332 173.309 137.332 173.497V174.091C137.332 174.271 137.353 174.43 137.396 174.569C137.439 174.706 137.497 174.821 137.571 174.916C137.645 175.01 137.728 175.081 137.821 175.129C137.915 175.178 138.013 175.202 138.115 175.202C138.233 175.202 138.339 175.179 138.431 175.135C138.524 175.089 138.602 175.025 138.665 174.944C138.729 174.86 138.778 174.762 138.812 174.649C138.845 174.536 138.862 174.412 138.862 174.277C138.862 174.157 138.847 174.041 138.817 173.93C138.788 173.818 138.742 173.718 138.681 173.631C138.62 173.542 138.543 173.472 138.451 173.422C138.36 173.371 138.252 173.345 138.126 173.345C137.984 173.345 137.85 173.38 137.726 173.45C137.604 173.519 137.503 173.609 137.424 173.722C137.346 173.833 137.302 173.954 137.291 174.086L137.019 174.083C137.044 173.876 137.093 173.699 137.163 173.553C137.235 173.405 137.324 173.285 137.429 173.192C137.537 173.098 137.656 173.029 137.787 172.987C137.921 172.942 138.061 172.92 138.209 172.92C138.411 172.92 138.585 172.958 138.731 173.034C138.877 173.11 138.998 173.212 139.092 173.339C139.186 173.465 139.256 173.607 139.3 173.767C139.346 173.924 139.37 174.086 139.37 174.252C139.37 174.443 139.343 174.622 139.289 174.788C139.235 174.955 139.155 175.101 139.048 175.227C138.942 175.352 138.812 175.451 138.656 175.521C138.501 175.591 138.32 175.626 138.115 175.626C137.897 175.626 137.706 175.582 137.543 175.493C137.38 175.402 137.245 175.282 137.138 175.132C137.031 174.982 136.95 174.816 136.896 174.633C136.843 174.449 136.816 174.263 136.816 174.075V173.833C136.816 173.548 136.845 173.269 136.902 172.995C136.959 172.721 137.058 172.473 137.199 172.251C137.341 172.029 137.539 171.852 137.79 171.721C138.042 171.59 138.363 171.524 138.753 171.524ZM141.207 175.571H140.363L140.369 175.135H141.207C141.496 175.135 141.736 175.075 141.929 174.955C142.121 174.832 142.265 174.662 142.362 174.444C142.46 174.224 142.509 173.966 142.509 173.672V173.425C142.509 173.194 142.481 172.989 142.426 172.809C142.37 172.628 142.289 172.475 142.181 172.351C142.074 172.225 141.943 172.13 141.787 172.065C141.634 172 141.457 171.968 141.257 171.968H140.347V171.529H141.257C141.522 171.529 141.763 171.574 141.981 171.663C142.2 171.75 142.388 171.876 142.545 172.043C142.704 172.208 142.826 172.407 142.911 172.643C142.996 172.876 143.039 173.138 143.039 173.431V173.672C143.039 173.965 142.996 174.228 142.911 174.463C142.826 174.696 142.703 174.895 142.542 175.06C142.383 175.225 142.19 175.352 141.965 175.44C141.741 175.527 141.488 175.571 141.207 175.571ZM140.649 171.529V175.571H140.113V171.529H140.649Z" fill="#828282"/>
<path d="M162.606 171.529V171.818L160.933 175.571H160.391L162.062 171.951H159.875V171.529H162.606ZM164.419 175.571H163.575L163.581 175.135H164.419C164.708 175.135 164.948 175.075 165.141 174.955C165.333 174.832 165.477 174.662 165.574 174.444C165.672 174.224 165.721 173.966 165.721 173.672V173.425C165.721 173.194 165.693 172.989 165.637 172.809C165.582 172.628 165.5 172.475 165.393 172.351C165.286 172.225 165.154 172.13 164.999 172.065C164.845 172 164.669 171.968 164.469 171.968H163.558V171.529H164.469C164.733 171.529 164.975 171.574 165.193 171.663C165.412 171.75 165.599 171.876 165.757 172.043C165.916 172.208 166.038 172.407 166.123 172.643C166.208 172.876 166.251 173.138 166.251 173.431V173.672C166.251 173.965 166.208 174.228 166.123 174.463C166.038 174.696 165.915 174.895 165.754 175.06C165.595 175.225 165.402 175.352 165.177 175.44C164.953 175.527 164.7 175.571 164.419 175.571ZM163.861 171.529V175.571H163.325V171.529H163.861Z" fill="#828282"/>
<rect x="49.1267" y="166.781" width="20.5272" height="13.685" rx="6.84249" fill="#E7E7E7" fill-opacity="0.92"/>
<path d="M58.9725 175.159V175.783H56.208V175.25L57.5153 173.849C57.6467 173.702 57.7503 173.574 57.8262 173.463C57.902 173.35 57.9566 173.249 57.9899 173.16C58.0251 173.07 58.0427 172.984 58.0427 172.902C58.0427 172.78 58.0223 172.675 57.9816 172.588C57.9409 172.5 57.8808 172.431 57.8012 172.383C57.7235 172.335 57.6273 172.311 57.5125 172.311C57.3904 172.311 57.2849 172.34 57.1961 172.4C57.1091 172.459 57.0425 172.541 56.9963 172.647C56.9519 172.752 56.9296 172.872 56.9296 173.005H56.1275C56.1275 172.764 56.1849 172.544 56.2996 172.344C56.4143 172.142 56.5762 171.982 56.7853 171.864C56.9944 171.744 57.2424 171.684 57.5292 171.684C57.8123 171.684 58.051 171.73 58.2453 171.822C58.4414 171.913 58.5895 172.044 58.6894 172.217C58.7912 172.387 58.8421 172.59 58.8421 172.827C58.8421 172.96 58.8208 173.091 58.7782 173.219C58.7357 173.344 58.6746 173.47 58.595 173.596C58.5173 173.72 58.4229 173.846 58.3119 173.973C58.2009 174.101 58.0778 174.233 57.9428 174.37L57.2405 175.159H58.9725ZM60.7961 175.783H59.9162L59.9218 175.134H60.7961C61.0145 175.134 61.1986 175.085 61.3485 174.987C61.4984 174.887 61.6112 174.741 61.6871 174.551C61.7648 174.36 61.8037 174.13 61.8037 173.86V173.663C61.8037 173.455 61.7815 173.273 61.7371 173.116C61.6945 172.959 61.6307 172.826 61.5455 172.719C61.4604 172.612 61.3559 172.531 61.2319 172.477C61.1079 172.422 60.9654 172.394 60.8044 172.394H59.8996V171.742H60.8044C61.0746 171.742 61.3216 171.788 61.5455 171.881C61.7713 171.971 61.9665 172.102 62.1312 172.272C62.2959 172.442 62.4226 172.646 62.5115 172.883C62.6021 173.118 62.6475 173.379 62.6475 173.668V173.86C62.6475 174.147 62.6021 174.408 62.5115 174.645C62.4226 174.882 62.2959 175.086 62.1312 175.256C61.9684 175.424 61.7731 175.555 61.5455 175.647C61.3198 175.738 61.07 175.783 60.7961 175.783ZM60.3881 171.742V175.783H59.5554V171.742H60.3881Z" fill="#151515"/>
<path d="M22.0566 144.431C30.5625 144.431 31.3857 154.841 40.4403 154.841C49.4949 154.841 47.2999 125.254 55.8057 125.254C64.3116 125.254 59.6471 100.323 71.4456 100.323C83.244 100.323 77.7564 125.254 88.4573 125.254C99.1583 125.254 97.512 96.1513 104.372 96.1513C111.231 96.1513 109.31 113.473 117.542 113.473C125.773 113.473 121.932 84.9023 130.712 84.9023C139.493 84.9023 138.669 97.374 146.627 97.374C154.584 97.374 155.407 111.829 166.382 111.829C177.357 111.829 170.498 127.942 180.924 127.942" stroke="#6C5FBC" stroke-width="0.959741" stroke-linecap="round" stroke-linejoin="round"/>
<circle cx="154.292" cy="102.734" r="2.48025" fill="#C5BFED" stroke="#6C5FBC" stroke-width="1.98706"/>
<rect x="157.754" y="87.8533" width="18.2921" height="8.53632" rx="4.26816" fill="#6C5FBC"/>
<path d="M163.01 92.4646C163.01 92.6368 162.965 92.7991 162.876 92.9515C162.79 93.1005 162.66 93.2247 162.488 93.324C162.319 93.4201 162.119 93.4764 161.887 93.4929V93.8953H161.569V93.488C161.238 93.4582 160.971 93.3588 160.769 93.1899C160.567 93.0177 160.463 92.7859 160.456 92.4944H161.202C161.221 92.7329 161.344 92.877 161.569 92.9266V91.9778C161.331 91.9182 161.139 91.8586 160.993 91.799C160.847 91.7394 160.721 91.6433 160.615 91.5108C160.509 91.3784 160.456 91.1979 160.456 90.9694C160.456 90.6813 160.559 90.4461 160.764 90.264C160.973 90.0818 161.241 89.9775 161.569 89.951V89.5486H161.887V89.951C162.205 89.9775 162.458 90.0735 162.647 90.2391C162.839 90.4047 162.947 90.6332 162.97 90.9247H162.22C162.21 90.8286 162.175 90.7458 162.116 90.6763C162.059 90.6034 161.983 90.5521 161.887 90.5223V91.4612C162.135 91.5241 162.331 91.5854 162.473 91.645C162.619 91.7013 162.745 91.7957 162.851 91.9281C162.957 92.0573 163.01 92.2361 163.01 92.4646ZM161.182 90.9346C161.182 91.0439 161.215 91.1333 161.281 91.2029C161.347 91.2691 161.443 91.3237 161.569 91.3668V90.5074C161.45 90.5239 161.356 90.5687 161.286 90.6415C161.216 90.7144 161.182 90.8121 161.182 90.9346ZM161.887 92.9366C162.013 92.9134 162.111 92.862 162.18 92.7826C162.253 92.7031 162.289 92.607 162.289 92.4944C162.289 92.3852 162.255 92.2974 162.185 92.2312C162.116 92.1649 162.016 92.1103 161.887 92.0672V92.9366ZM163.677 92.7577V92.2113L165.301 89.8864H166.111V92.1517H166.548V92.7577H166.111V93.4631H165.416V92.7577H163.677ZM165.46 90.6316L164.442 92.1517H165.46V90.6316ZM166.991 91.6052C166.991 91.0323 167.094 90.5836 167.299 90.259C167.508 89.9344 167.852 89.7722 168.332 89.7722C168.812 89.7722 169.155 89.9344 169.361 90.259C169.569 90.5836 169.674 91.0323 169.674 91.6052C169.674 92.1815 169.569 92.6335 169.361 92.9614C169.155 93.2893 168.812 93.4532 168.332 93.4532C167.852 93.4532 167.508 93.2893 167.299 92.9614C167.094 92.6335 166.991 92.1815 166.991 91.6052ZM168.988 91.6052C168.988 91.3602 168.971 91.1548 168.938 90.9892C168.909 90.8203 168.846 90.6829 168.75 90.5769C168.657 90.471 168.518 90.418 168.332 90.418C168.147 90.418 168.006 90.471 167.91 90.5769C167.817 90.6829 167.754 90.8203 167.721 90.9892C167.691 91.1548 167.677 91.3602 167.677 91.6052C167.677 91.8569 167.691 92.0689 167.721 92.2411C167.751 92.41 167.814 92.5474 167.91 92.6534C168.006 92.7561 168.147 92.8074 168.332 92.8074C168.518 92.8074 168.658 92.7561 168.755 92.6534C168.851 92.5474 168.913 92.41 168.943 92.2411C168.973 92.0689 168.988 91.8569 168.988 91.6052ZM171.007 92.4448C171.034 92.5905 171.093 92.7031 171.186 92.7826C171.282 92.8587 171.41 92.8968 171.569 92.8968C171.774 92.8968 171.923 92.8124 172.016 92.6435C172.108 92.4713 172.155 92.1831 172.155 91.7791C172.079 91.8851 171.971 91.9679 171.832 92.0275C171.696 92.0871 171.549 92.1169 171.39 92.1169C171.178 92.1169 170.986 92.0738 170.814 91.9877C170.645 91.8983 170.51 91.7675 170.411 91.5953C170.312 91.4198 170.262 91.2078 170.262 90.9594C170.262 90.5918 170.371 90.3004 170.59 90.0851C170.809 89.8666 171.107 89.7573 171.484 89.7573C171.954 89.7573 172.286 89.908 172.478 90.2093C172.673 90.5107 172.771 90.9644 172.771 91.5705C172.771 92.001 172.733 92.3537 172.657 92.6286C172.584 92.9034 172.456 93.1121 172.274 93.2545C172.095 93.3969 171.85 93.4681 171.539 93.4681C171.294 93.4681 171.085 93.4217 170.913 93.329C170.741 93.233 170.608 93.1088 170.515 92.9564C170.426 92.8008 170.375 92.6302 170.361 92.4448H171.007ZM171.534 91.5506C171.706 91.5506 171.842 91.4976 171.941 91.3916C172.041 91.2856 172.09 91.1432 172.09 90.9644C172.09 90.769 172.037 90.6183 171.931 90.5123C171.829 90.4031 171.688 90.3484 171.509 90.3484C171.33 90.3484 171.188 90.4047 171.082 90.5173C170.979 90.6266 170.928 90.7723 170.928 90.9545C170.928 91.13 170.977 91.2741 171.077 91.3867C171.179 91.4959 171.332 91.5506 171.534 91.5506Z" fill="white"/>
<line opacity="0.09" x1="22.2888" y1="140.114" x2="180.482" y2="140.114" stroke="#6C5FBC" stroke-width="0.52382" stroke-linecap="round"/>
<line opacity="0.09" x1="22.8124" y1="122.304" x2="181.006" y2="122.304" stroke="#6C5FBC" stroke-width="0.52382" stroke-linecap="round"/>
<line opacity="0.09" x1="22.2888" y1="103.97" x2="180.482" y2="103.97" stroke="#6C5FBC" stroke-width="0.52382" stroke-linecap="round"/>
<g clip-path="url(#clip0_1_13446)">
<rect x="41.8804" y="51.6541" width="28.4527" height="13.7106" rx="6.8553" fill="#6C5FBC"/>
<path d="M54.0556 56.6886V60.0093H53.6189V57.5331L52.5152 60.0093H52.2081L51.0996 57.5283V60.0093H50.6629V56.6886H51.1332L52.3617 59.4334L53.5901 56.6886H54.0556ZM54.633 58.6848C54.633 58.4161 54.6874 58.181 54.7962 57.9794C54.9049 57.7747 55.0537 57.6163 55.2425 57.5044C55.4344 57.3924 55.6471 57.3364 55.8807 57.3364C56.111 57.3364 56.311 57.386 56.4805 57.4852C56.6501 57.5843 56.7764 57.7091 56.8596 57.8595V57.3796H57.3011V60.0093H56.8596V59.5198C56.7732 59.6734 56.6437 59.8013 56.4709 59.9037C56.3014 60.0029 56.103 60.0525 55.8759 60.0525C55.6423 60.0525 55.4312 59.9949 55.2425 59.8797C55.0537 59.7645 54.9049 59.603 54.7962 59.395C54.6874 59.1871 54.633 58.9504 54.633 58.6848ZM56.8596 58.6896C56.8596 58.4913 56.8196 58.3185 56.7397 58.1714C56.6597 58.0242 56.5509 57.9122 56.4133 57.8355C56.279 57.7555 56.1302 57.7155 55.9671 57.7155C55.8039 57.7155 55.6551 57.7539 55.5208 57.8307C55.3864 57.9074 55.2792 58.0194 55.1993 58.1666C55.1193 58.3137 55.0793 58.4865 55.0793 58.6848C55.0793 58.8864 55.1193 59.0623 55.1993 59.2127C55.2792 59.3599 55.3864 59.4734 55.5208 59.5534C55.6551 59.6302 55.8039 59.6686 55.9671 59.6686C56.1302 59.6686 56.279 59.6302 56.4133 59.5534C56.5509 59.4734 56.6597 59.3599 56.7397 59.2127C56.8196 59.0623 56.8596 58.888 56.8596 58.6896ZM58.2646 56.9525C58.1814 56.9525 58.111 56.9237 58.0534 56.8661C57.9959 56.8085 57.9671 56.7382 57.9671 56.655C57.9671 56.5718 57.9959 56.5014 58.0534 56.4438C58.111 56.3863 58.1814 56.3575 58.2646 56.3575C58.3446 56.3575 58.4118 56.3863 58.4661 56.4438C58.5237 56.5014 58.5525 56.5718 58.5525 56.655C58.5525 56.7382 58.5237 56.8085 58.4661 56.8661C58.4118 56.9237 58.3446 56.9525 58.2646 56.9525ZM58.4757 57.3796V60.0093H58.0391V57.3796H58.4757ZM60.5012 57.3316C60.8212 57.3316 61.0803 57.4292 61.2786 57.6243C61.477 57.8163 61.5761 58.0946 61.5761 58.4593V60.0093H61.1443V58.5217C61.1443 58.2593 61.0787 58.0594 60.9475 57.9218C60.8164 57.7811 60.6372 57.7107 60.4101 57.7107C60.1797 57.7107 59.9958 57.7827 59.8582 57.9266C59.7238 58.0706 59.6567 58.2801 59.6567 58.5553V60.0093H59.22V57.3796H59.6567V57.7539C59.743 57.6195 59.8598 57.5155 60.007 57.442C60.1573 57.3684 60.3221 57.3316 60.5012 57.3316Z" fill="white"/>
<path d="M84.5133 56.9259L83.4747 60.5095H82.9503L82.1174 57.6252L81.2536 60.5095L80.7343 60.5147L79.7317 56.9259H80.2305L81.012 59.9645L81.8757 56.9259H82.4002L83.2228 59.9542L84.0094 56.9259H84.5133ZM87.6475 58.9928C87.6475 59.0819 87.6423 59.1762 87.6321 59.2756H85.3801C85.3972 59.5532 85.4915 59.7709 85.6629 59.9285C85.8377 60.0828 86.0485 60.1599 86.2953 60.1599C86.4975 60.1599 86.6655 60.1136 86.7991 60.0211C86.9362 59.9251 87.0322 59.7983 87.0871 59.6406H87.5909C87.5155 59.9114 87.3647 60.1325 87.1385 60.3039C86.9122 60.4718 86.6312 60.5558 86.2953 60.5558C86.0279 60.5558 85.788 60.4958 85.5755 60.3758C85.3664 60.2559 85.2019 60.0862 85.0819 59.8668C84.9619 59.644 84.9019 59.387 84.9019 59.0956C84.9019 58.8043 84.9602 58.5489 85.0767 58.3295C85.1933 58.1102 85.3561 57.9422 85.5652 57.8257C85.7777 57.7057 86.0211 57.6457 86.2953 57.6457C86.5626 57.6457 86.7991 57.704 87.0048 57.8205C87.2105 57.9371 87.3681 58.0982 87.4778 58.3038C87.5909 58.5061 87.6475 58.7357 87.6475 58.9928ZM87.1642 58.8951C87.1642 58.7169 87.1248 58.5643 87.0459 58.4375C86.9671 58.3073 86.8591 58.2096 86.722 58.1444C86.5883 58.0759 86.4392 58.0416 86.2747 58.0416C86.0382 58.0416 85.836 58.117 85.668 58.2678C85.5035 58.4187 85.4092 58.6277 85.3852 58.8951H87.1642ZM90.8872 58.9928C90.8872 59.0819 90.8821 59.1762 90.8718 59.2756H88.6198C88.637 59.5532 88.7312 59.7709 88.9026 59.9285C89.0774 60.0828 89.2882 60.1599 89.535 60.1599C89.7372 60.1599 89.9052 60.1136 90.0389 60.0211C90.176 59.9251 90.2719 59.7983 90.3268 59.6406H90.8307C90.7552 59.9114 90.6044 60.1325 90.3782 60.3039C90.152 60.4718 89.8709 60.5558 89.535 60.5558C89.2676 60.5558 89.0277 60.4958 88.8152 60.3758C88.6061 60.2559 88.4416 60.0862 88.3216 59.8668C88.2016 59.644 88.1417 59.387 88.1417 59.0956C88.1417 58.8043 88.1999 58.5489 88.3165 58.3295C88.433 58.1102 88.5958 57.9422 88.8049 57.8257C89.0174 57.7057 89.2608 57.6457 89.535 57.6457C89.8024 57.6457 90.0389 57.704 90.2445 57.8205C90.4502 57.9371 90.6079 58.0982 90.7175 58.3038C90.8307 58.5061 90.8872 58.7357 90.8872 58.9928ZM90.4039 58.8951C90.4039 58.7169 90.3645 58.5643 90.2857 58.4375C90.2068 58.3073 90.0989 58.2096 89.9617 58.1444C89.8281 58.0759 89.679 58.0416 89.5144 58.0416C89.2779 58.0416 89.0757 58.117 88.9077 58.2678C88.7432 58.4187 88.649 58.6277 88.625 58.8951H90.4039ZM93.1295 60.5095L92.0241 59.2653V60.5095H91.5562V56.7048H92.0241V58.9414L93.1089 57.692H93.7619L92.4354 59.0956L93.767 60.5095H93.1295ZM94.7215 56.7048V60.5095H94.2537V56.7048H94.7215ZM97.9971 57.692L96.3005 61.836H95.8172L96.3724 60.4787L95.2362 57.692H95.7555L96.6398 59.9748L97.5138 57.692H97.9971Z" fill="#828282"/>
<path d="M115.587 56.9516V60.5095H115.119V57.8565L113.937 60.5095H113.608L112.42 57.8514V60.5095H111.952V56.9516H112.456L113.772 59.8925L115.088 56.9516H115.587ZM117.661 60.5558C117.397 60.5558 117.157 60.4958 116.941 60.3758C116.728 60.2559 116.561 60.0862 116.437 59.8668C116.317 59.644 116.257 59.387 116.257 59.0956C116.257 58.8077 116.319 58.554 116.442 58.3347C116.569 58.1119 116.74 57.9422 116.956 57.8257C117.172 57.7057 117.414 57.6457 117.681 57.6457C117.949 57.6457 118.19 57.7057 118.406 57.8257C118.622 57.9422 118.792 58.1102 118.915 58.3295C119.042 58.5489 119.106 58.8043 119.106 59.0956C119.106 59.387 119.04 59.644 118.91 59.8668C118.783 60.0862 118.61 60.2559 118.391 60.3758C118.172 60.4958 117.928 60.5558 117.661 60.5558ZM117.661 60.1445C117.829 60.1445 117.986 60.1051 118.134 60.0262C118.281 59.9474 118.399 59.8291 118.489 59.6715C118.581 59.5138 118.627 59.3218 118.627 59.0956C118.627 58.8694 118.583 58.6774 118.494 58.5198C118.405 58.3621 118.288 58.2456 118.144 58.1702C118 58.0913 117.844 58.0519 117.676 58.0519C117.505 58.0519 117.347 58.0913 117.203 58.1702C117.063 58.2456 116.95 58.3621 116.864 58.5198C116.778 58.6774 116.735 58.8694 116.735 59.0956C116.735 59.3253 116.776 59.5189 116.859 59.6766C116.944 59.8343 117.058 59.9525 117.198 60.0314C117.339 60.1068 117.493 60.1445 117.661 60.1445ZM121.145 57.6406C121.488 57.6406 121.765 57.7451 121.978 57.9542C122.19 58.1599 122.297 58.4581 122.297 58.8488V60.5095H121.834V58.9157C121.834 58.6346 121.764 58.4204 121.623 58.273C121.483 58.1222 121.291 58.0468 121.047 58.0468C120.8 58.0468 120.603 58.1239 120.456 58.2781C120.312 58.4324 120.24 58.6569 120.24 58.9517V60.5095H119.772V57.692H120.24V58.093C120.333 57.9491 120.458 57.8377 120.615 57.7588C120.776 57.68 120.953 57.6406 121.145 57.6406ZM123.683 58.0776V59.7383C123.683 59.8754 123.712 59.9731 123.77 60.0314C123.829 60.0862 123.93 60.1136 124.074 60.1136H124.418V60.5095H123.997C123.736 60.5095 123.541 60.4495 123.411 60.3296C123.28 60.2096 123.215 60.0125 123.215 59.7383V58.0776H122.85V57.692H123.215V56.9825H123.683V57.692H124.418V58.0776H123.683ZM125.504 56.7048V60.5095H125.037V56.7048H125.504ZM128.78 57.692L127.083 61.836H126.6L127.155 60.4787L126.019 57.692H126.538L127.423 59.9748L128.297 57.692H128.78Z" fill="#828282"/>
<path d="M144.929 56.9259L143.762 59.1573V60.5095H143.294V59.1573L142.122 56.9259H142.641L143.526 58.7409L144.41 56.9259H144.929ZM148.045 58.9928C148.045 59.0819 148.04 59.1762 148.03 59.2756H145.778C145.795 59.5532 145.889 59.7709 146.06 59.9285C146.235 60.0828 146.446 60.1599 146.693 60.1599C146.895 60.1599 147.063 60.1136 147.197 60.0211C147.334 59.9251 147.43 59.7983 147.485 59.6406H147.988C147.913 59.9114 147.762 60.1325 147.536 60.3039C147.31 60.4718 147.029 60.5558 146.693 60.5558C146.425 60.5558 146.186 60.4958 145.973 60.3758C145.764 60.2559 145.599 60.0862 145.479 59.8668C145.359 59.644 145.3 59.387 145.3 59.0956C145.3 58.8043 145.358 58.5489 145.474 58.3295C145.591 58.1102 145.754 57.9422 145.963 57.8257C146.175 57.7057 146.419 57.6457 146.693 57.6457C146.96 57.6457 147.197 57.704 147.402 57.8205C147.608 57.9371 147.766 58.0982 147.875 58.3038C147.988 58.5061 148.045 58.7357 148.045 58.9928ZM147.562 58.8951C147.562 58.7169 147.522 58.5643 147.443 58.4375C147.365 58.3073 147.257 58.2096 147.12 58.1444C146.986 58.0759 146.837 58.0416 146.672 58.0416C146.436 58.0416 146.234 58.117 146.066 58.2678C145.901 58.4187 145.807 58.6277 145.783 58.8951H147.562ZM148.539 59.0905C148.539 58.8026 148.598 58.5506 148.714 58.3347C148.831 58.1153 148.99 57.9456 149.192 57.8257C149.398 57.7057 149.626 57.6457 149.876 57.6457C150.123 57.6457 150.337 57.6989 150.519 57.8051C150.7 57.9114 150.836 58.045 150.925 58.2061V57.692H151.398V60.5095H150.925V59.9851C150.832 60.1496 150.694 60.2867 150.508 60.3964C150.327 60.5027 150.114 60.5558 149.871 60.5558C149.621 60.5558 149.394 60.4941 149.192 60.3707C148.99 60.2473 148.831 60.0742 148.714 59.8514C148.598 59.6286 148.539 59.375 148.539 59.0905ZM150.925 59.0956C150.925 58.8831 150.882 58.698 150.796 58.5403C150.711 58.3827 150.594 58.2627 150.447 58.1804C150.303 58.0947 150.143 58.0519 149.969 58.0519C149.794 58.0519 149.634 58.093 149.49 58.1753C149.346 58.2576 149.232 58.3775 149.146 58.5352C149.06 58.6929 149.017 58.878 149.017 59.0905C149.017 59.3064 149.06 59.4949 149.146 59.656C149.232 59.8137 149.346 59.9354 149.49 60.0211C149.634 60.1033 149.794 60.1445 149.969 60.1445C150.143 60.1445 150.303 60.1033 150.447 60.0211C150.594 59.9354 150.711 59.8137 150.796 59.656C150.882 59.4949 150.925 59.3081 150.925 59.0956ZM152.708 58.1496C152.79 57.9885 152.907 57.8634 153.057 57.7743C153.212 57.6851 153.399 57.6406 153.618 57.6406V58.1239H153.494C152.97 58.1239 152.708 58.4084 152.708 58.9774V60.5095H152.24V57.692H152.708V58.1496ZM154.677 56.7048V60.5095H154.209V56.7048H154.677ZM157.953 57.692L156.256 61.836H155.773L156.328 60.4787L155.192 57.692H155.711L156.596 59.9748L157.47 57.692H157.953Z" fill="#828282"/>
</g>
</g>
<defs>
<filter id="filter0_d_1_13446" x="8.57666" y="0" width="209.828" height="198.417" filterUnits="userSpaceOnUse" color-interpolation-filters="sRGB">
<feFlood flood-opacity="0" result="BackgroundImageFix"/>
<feColorMatrix in="SourceAlpha" type="matrix" values="0 0 0 0 0 0 0 0 0 0 0 0 0 0 0 0 0 0 127 0" result="hardAlpha"/>
<feOffset dx="12" dy="-15"/>
<feGaussianBlur stdDeviation="12.5"/>
<feComposite in2="hardAlpha" operator="out"/>
<feColorMatrix type="matrix" values="0 0 0 0 0 0 0 0 0 0 0 0 0 0 0 0 0 0 0.15 0"/>
<feBlend mode="normal" in2="BackgroundImageFix" result="effect1_dropShadow_1_13446"/>
<feBlend mode="normal" in="SourceGraphic" in2="effect1_dropShadow_1_13446" result="shape"/>
</filter>
<filter id="filter1_d_1_13446" x="0.936347" y="23.1491" width="226.447" height="215.821" filterUnits="userSpaceOnUse" color-interpolation-filters="sRGB">
<feFlood flood-opacity="0" result="BackgroundImageFix"/>
<feColorMatrix in="SourceAlpha" type="matrix" values="0 0 0 0 0 0 0 0 0 0 0 0 0 0 0 0 0 0 127 0" result="hardAlpha"/>
<feOffset dx="12.6382" dy="16.8509"/>
<feGaussianBlur stdDeviation="16.8509"/>
<feColorMatrix type="matrix" values="0 0 0 0 0.101961 0 0 0 0 0.12549 0 0 0 0 0.172549 0 0 0 0.15 0"/>
<feBlend mode="normal" in2="BackgroundImageFix" result="effect1_dropShadow_1_13446"/>
<feBlend mode="normal" in="SourceGraphic" in2="effect1_dropShadow_1_13446" result="shape"/>
</filter>
<clipPath id="clip0_1_13446">
<rect x="41.8804" y="51.6541" width="119.628" height="13.7106" rx="6.8553" fill="white"/>
</clipPath>
</defs>
</svg>
