<svg width="14" height="19" viewBox="0 0 14 19" fill="none" xmlns="http://www.w3.org/2000/svg">
<g id="icon">
<path id="Vector 333" d="M12.9356 12.0211C12.6503 14.8185 10.5816 17.6159 6.94715 17.6159C0.782304 17.6159 -0.477802 10.9556 3.50433 7.5453C6.69982 4.80856 6.9999 4.44839 6.78567 1.06126C6.78074 0.983349 6.87527 0.940004 6.92863 0.996988C8.95359 3.15948 9.45586 5.38621 8.43545 10.1954C8.42189 10.2593 8.48257 10.3152 8.54311 10.2906C10.0343 9.68575 11.1884 7.69848 11.2944 6.10205C11.2997 6.02328 11.3983 5.98976 11.4436 6.05443C12.3078 7.28954 13.1357 10.0591 12.9356 12.0211Z" fill="#F9998A"/>
<path id="Vector 333 (Stroke)" fill-rule="evenodd" clip-rule="evenodd" d="M6.15816 1.10099C6.11874 0.477654 6.90205 0.0470686 7.38871 0.566778C8.46608 1.71732 9.16802 2.92183 9.4446 4.49468C9.66486 5.74723 9.60928 7.20075 9.30566 9.00147C9.52212 8.77882 9.72508 8.51924 9.90686 8.23177C10.3486 7.53316 10.6221 6.73715 10.667 6.06033C10.688 5.74455 10.9034 5.50989 11.1588 5.42628C11.4232 5.33972 11.7608 5.40907 11.9599 5.69358C12.4499 6.39383 12.8973 7.47226 13.1977 8.60366C13.499 9.73843 13.6728 11.0022 13.5624 12.085C13.2529 15.1204 10.9823 18.2453 6.9478 18.2453C3.59929 18.2453 1.48375 16.4077 0.815344 14.0298C0.158735 11.6939 0.925225 8.92594 3.09557 7.06724C4.73009 5.66737 5.48807 4.97878 5.86662 4.25536C6.22228 3.57568 6.26624 2.80984 6.15816 1.10099L6.78632 1.06126L6.15816 1.10099ZM7.46594 2.71846C7.44294 3.53274 7.31607 4.20051 6.98197 4.839C6.46516 5.82663 5.47536 6.68648 3.9144 8.02335L3.91439 8.02336C2.1026 9.57499 1.50808 11.8423 2.0272 13.6891C2.53452 15.494 4.13146 16.9865 6.9478 16.9865C10.1821 16.9865 12.0491 14.5166 12.3101 11.9573C12.3997 11.0781 12.2597 9.97602 11.981 8.92673C11.8635 8.48412 11.7249 8.06428 11.5759 7.68655C11.4178 8.10935 11.2125 8.52235 10.9708 8.90457C10.4386 9.7462 9.68646 10.5063 8.78034 10.8739C8.19657 11.1107 7.71482 10.5624 7.8204 10.0648C8.32452 7.68885 8.43522 6.023 8.2048 4.71269C8.07422 3.97009 7.83116 3.3257 7.46594 2.71846Z" fill="#F9998A"/>
</g>
</svg>
