<svg width="55" height="22" viewBox="0 0 55 22" fill="none" xmlns="http://www.w3.org/2000/svg">
<path d="M12.3574 9.64558C12.3574 10.0691 12.3291 10.4503 12.2727 10.7891H3.69649C3.76707 11.6361 4.06353 12.2996 4.58587 12.7796C5.10821 13.2596 5.75054 13.4996 6.51287 13.4996C7.61401 13.4996 8.39751 13.0266 8.86338 12.0808H12.0609C11.7221 13.2102 11.0727 14.1419 10.1128 14.876C9.15278 15.596 7.974 15.956 6.57639 15.956C5.44702 15.956 4.43058 15.7089 3.52708 15.2148C2.6377 14.7066 1.9389 13.9937 1.43068 13.0761C0.936575 12.1584 0.689524 11.0996 0.689524 9.89969C0.689524 8.68561 0.936575 7.61976 1.43068 6.70214C1.92478 5.78453 2.61652 5.07867 3.5059 4.58456C4.39529 4.09046 5.41878 3.84341 6.57639 3.84341C7.69165 3.84341 8.68691 4.0834 9.56218 4.56339C10.4516 5.04337 11.1362 5.72806 11.6162 6.61744C12.1103 7.49271 12.3574 8.50209 12.3574 9.64558ZM9.28689 8.79855C9.27278 8.03622 8.99749 7.42918 8.46104 6.97743C7.92459 6.51156 7.26814 6.27863 6.49169 6.27863C5.7576 6.27863 5.13644 6.5045 4.62822 6.95625C4.13412 7.39389 3.8306 8.00798 3.71766 8.79855H9.28689ZM13.759 9.85734C13.759 8.67149 13.9919 7.61976 14.4578 6.70214C14.9377 5.78453 15.5801 5.07867 16.3848 4.58456C17.2036 4.09046 18.1141 3.84341 19.1164 3.84341C19.9917 3.84341 20.754 4.01988 21.4034 4.37281C22.0669 4.72574 22.5963 5.17043 22.9916 5.70688V4.03399H25.9774V15.7654H22.9916V14.0501C22.6104 14.6007 22.081 15.0595 21.4034 15.4266C20.7399 15.7795 19.9705 15.956 19.0953 15.956C18.1071 15.956 17.2036 15.7019 16.3848 15.1936C15.5801 14.6854 14.9377 13.9725 14.4578 13.0549C13.9919 12.1231 13.759 11.0573 13.759 9.85734ZM22.9916 9.89969C22.9916 9.17971 22.8504 8.56561 22.5681 8.05739C22.2857 7.53506 21.9046 7.13978 21.4246 6.87155C20.9446 6.58921 20.4293 6.44803 19.8788 6.44803C19.3282 6.44803 18.82 6.58215 18.3541 6.85037C17.8882 7.1186 17.5071 7.51388 17.2106 8.03622C16.9283 8.54444 16.7871 9.15148 16.7871 9.85734C16.7871 10.5632 16.9283 11.1844 17.2106 11.7208C17.5071 12.2431 17.8882 12.6455 18.3541 12.9278C18.8341 13.2102 19.3423 13.3513 19.8788 13.3513C20.4293 13.3513 20.9446 13.2172 21.4246 12.949C21.9046 12.6667 22.2857 12.2714 22.5681 11.7632C22.8504 11.2408 22.9916 10.6197 22.9916 9.89969ZM32.3245 6.46921V12.1443C32.3245 12.5396 32.4163 12.829 32.5998 13.0125C32.7974 13.1819 33.1221 13.2666 33.5739 13.2666H34.9503V15.7654H33.0868C30.5881 15.7654 29.3387 14.5513 29.3387 12.1231V6.46921H27.9411V4.03399H29.3387V1.13291H32.3245V4.03399H34.9503V6.46921H32.3245ZM40.0472 0.0952969V15.7654H37.0826V0.0952969H40.0472ZM54.1994 4.03399L46.9361 21.3134H43.7809L46.322 15.4689L41.621 4.03399H44.9456L47.9737 12.229L51.0442 4.03399H54.1994Z" fill="#6C5FBC"/>
</svg>
