<svg width="165" height="173" viewBox="0 0 165 173" fill="none" xmlns="http://www.w3.org/2000/svg">
<g id="Group 34912" opacity="0.5">
<g id="icon">
<path id="Ellipse 130 (Stroke)" fill-rule="evenodd" clip-rule="evenodd" d="M74.3937 19.8225C39.9699 19.8225 12.0638 47.7286 12.0638 82.1524C12.0638 116.576 39.9699 144.482 74.3937 144.482C108.818 144.482 136.724 116.576 136.724 82.1524C136.724 47.7286 108.818 19.8225 74.3937 19.8225ZM0 82.1524C0 41.0659 33.3072 7.75868 74.3937 7.75868C115.48 7.75868 148.787 41.0659 148.787 82.1524C148.787 123.239 115.48 156.546 74.3937 156.546C33.3072 156.546 0 123.239 0 82.1524Z" fill="#C2C3CB"/>
<path id="Vector 446 (Stroke)" fill-rule="evenodd" clip-rule="evenodd" d="M118.383 126.143C120.739 123.787 124.558 123.787 126.914 126.143L163.105 162.334C165.461 164.69 165.461 168.509 163.105 170.865C160.75 173.221 156.931 173.221 154.575 170.865L118.383 134.673C116.028 132.318 116.028 128.499 118.383 126.143Z" fill="#C2C3CB"/>
</g>
<path id="Icon" fill-rule="evenodd" clip-rule="evenodd" d="M129.649 0.605585C136.886 -0.201862 144.367 -0.201862 151.603 0.605585C155.642 1.05618 158.9 4.23264 159.374 8.28023C160.239 15.6661 160.239 23.1274 159.374 30.5133C158.9 34.5608 155.642 37.7373 151.603 38.1879C144.367 38.9953 136.886 38.9953 129.649 38.1879C125.611 37.7373 122.353 34.5608 121.878 30.5132C121.013 23.1274 121.013 15.6661 121.878 8.28023C122.353 4.23264 125.611 1.05618 129.649 0.605585ZM132.302 11.0865C132.993 10.397 134.112 10.397 134.803 11.0865L140.626 16.9L146.45 11.0865C147.14 10.397 148.26 10.397 148.95 11.0865C149.641 11.776 149.641 12.8938 148.95 13.5833L143.127 19.3967L148.95 25.2102C149.641 25.8997 149.641 27.0175 148.95 27.707C148.26 28.3964 147.14 28.3964 146.449 27.707L140.626 21.8935L134.803 27.707C134.112 28.3965 132.993 28.3965 132.302 27.707C131.612 27.0175 131.612 25.8997 132.302 25.2102L138.125 19.3967L132.302 13.5832C131.612 12.8938 131.612 11.7759 132.302 11.0865Z" fill="#6C5FBC"/>
</g>
</svg>
