<svg width="16" height="19" viewBox="0 0 16 19" fill="none" xmlns="http://www.w3.org/2000/svg">
<g id="Group">
<path id="Vector" d="M5.24992 11.3333L10.7499 5.83333L5.24992 11.3333ZM5.70825 6.29167H5.71742H5.70825ZM10.2916 10.875H10.3008H10.2916ZM14.4166 17.75V3.08333C14.4166 2.5971 14.2234 2.13079 13.8796 1.78697C13.5358 1.44315 13.0695 1.25 12.5833 1.25H3.41659C2.93035 1.25 2.46404 1.44315 2.12022 1.78697C1.77641 2.13079 1.58325 2.5971 1.58325 3.08333V17.75L4.79158 15.9167L7.99992 17.75L11.2083 15.9167L14.4166 17.75ZM6.16658 6.29167C6.16658 6.41322 6.1183 6.5298 6.03234 6.61576C5.94639 6.70171 5.82981 6.75 5.70825 6.75C5.58669 6.75 5.47011 6.70171 5.38416 6.61576C5.29821 6.5298 5.24992 6.41322 5.24992 6.29167C5.24992 6.17011 5.29821 6.05353 5.38416 5.96758C5.47011 5.88162 5.58669 5.83333 5.70825 5.83333C5.82981 5.83333 5.94639 5.88162 6.03234 5.96758C6.1183 6.05353 6.16658 6.17011 6.16658 6.29167ZM10.7499 10.875C10.7499 10.9966 10.7016 11.1131 10.6157 11.1991C10.5297 11.285 10.4131 11.3333 10.2916 11.3333C10.17 11.3333 10.0534 11.285 9.96749 11.1991C9.88154 11.1131 9.83325 10.9966 9.83325 10.875C9.83325 10.7534 9.88154 10.6369 9.96749 10.5509C10.0534 10.465 10.17 10.4167 10.2916 10.4167C10.4131 10.4167 10.5297 10.465 10.6157 10.5509C10.7016 10.6369 10.7499 10.7534 10.7499 10.875Z" stroke="#FEFEFE" stroke-width="1.5" stroke-linecap="round" stroke-linejoin="round"/>
</g>
</svg>
