<svg width="19" height="19" viewBox="0 0 19 19" fill="none" xmlns="http://www.w3.org/2000/svg">
<g id="Star">
<path id="Edit Color" d="M11.6003 15.7038C12.7945 16.3575 13.8448 15.5652 13.6164 14.1788L13.2063 11.6894L14.9435 9.92634C15.9097 8.94583 15.5105 7.66107 14.1734 7.45879L11.7727 7.09559L10.7043 4.84185C10.1059 3.57941 8.80656 3.56583 8.20701 4.83064L7.13336 7.09559L4.73261 7.45879C3.39742 7.66078 2.99501 8.94445 3.96253 9.92634L5.69973 11.6894L5.28963 14.1788C5.06155 15.5633 6.10981 16.3584 7.30572 15.7038L9.45302 14.5285L11.6003 15.7038Z" fill="#6C5FBC"/>
<mask id="mask0_1_17177" style="mask-type:luminance" maskUnits="userSpaceOnUse" x="3" y="3" width="13" height="13">
<path id="Edit Color_2" d="M11.6003 15.7038C12.7945 16.3575 13.8448 15.5652 13.6164 14.1788L13.2063 11.6894L14.9435 9.92634C15.9097 8.94583 15.5105 7.66107 14.1734 7.45879L11.7727 7.09559L10.7043 4.84185C10.1059 3.57941 8.80656 3.56583 8.20701 4.83064L7.13336 7.09559L4.73261 7.45879C3.39742 7.66078 2.99501 8.94445 3.96253 9.92634L5.69973 11.6894L5.28963 14.1788C5.06155 15.5633 6.10981 16.3584 7.30572 15.7038L9.45302 14.5285L11.6003 15.7038Z" fill="white"/>
</mask>
<g mask="url(#mask0_1_17177)">
</g>
</g>
</svg>
