<svg width="16" height="16" viewBox="0 0 16 16" fill="none" xmlns="http://www.w3.org/2000/svg">
<path id="Vector" opacity="0.1" d="M13.6236 13.3202L9.92494 8.22856L15.0166 4.5299C15.6573 4.06445 15.8013 3.15578 15.3359 2.51504C14.8704 1.87429 13.9618 1.7303 13.321 2.19575L8.22935 5.89443L4.53069 0.802776C4.06524 0.16203 3.15658 0.0180385 2.51584 0.483489C1.87509 0.94894 1.7311 1.85761 2.19655 2.49836L5.89522 7.58998L0.803577 11.2887C0.162831 11.7541 0.0188368 12.6628 0.484288 13.3035C0.949738 13.9443 1.85839 14.0883 2.49914 13.6228L7.59078 9.92413L11.2895 15.0158C11.7549 15.6565 12.6636 15.8005 13.3043 15.3351C13.9549 14.8712 14.0974 13.9724 13.6236 13.3202Z" fill="white"/>
</svg>
