<svg width="9" height="9" viewBox="0 0 9 9" fill="none" xmlns="http://www.w3.org/2000/svg">
<path id="Vector" opacity="0.1" d="M7.00935 6.8535L5.1059 4.23317L7.72622 2.32973C8.05597 2.09019 8.13007 1.62256 7.89053 1.29281C7.651 0.963062 7.18338 0.88896 6.85363 1.1285L4.2333 3.03196L2.32984 0.411627C2.09031 0.0818782 1.62268 0.00777547 1.29293 0.247312C0.963185 0.486848 0.889081 0.954479 1.12862 1.28423L3.03207 3.90454L0.411749 5.808C0.0820005 6.04754 0.0078966 6.51517 0.247433 6.84492C0.486969 7.17467 0.954592 7.24877 1.28434 7.00924L3.90466 5.10577L5.80813 7.7261C6.04766 8.05585 6.51529 8.12996 6.84503 7.89042C7.17987 7.65169 7.25316 7.18914 7.00935 6.8535Z" fill="white"/>
</svg>
